<svg width="55" height="56" viewBox="0 0 55 56" fill="none" xmlns="http://www.w3.org/2000/svg">
<path fill-rule="evenodd" clip-rule="evenodd" d="M16.8936 7.50781C15.3748 7.50781 14.1436 8.73903 14.1436 10.2578V16.477V40.7043V45.9513C14.1436 47.4701 15.3748 48.7013 16.8936 48.7013H35.8271C37.3459 48.7013 38.5771 47.4701 38.5771 45.9513V40.7043V39.1307C38.5771 38.7165 38.2413 38.3807 37.8271 38.3807C37.4129 38.3807 37.0771 38.7165 37.0771 39.1307V39.9543H15.6436V16.477V10.2578C15.6436 9.56746 16.2032 9.00781 16.8936 9.00781H35.8271C36.5175 9.00781 37.0771 9.56746 37.0771 10.2578V10.904V11.6057C37.0771 12.0199 37.4129 12.3557 37.8271 12.3557C38.2413 12.3557 38.5771 12.0199 38.5771 11.6057V10.904V10.2578C38.5771 8.73903 37.3459 7.50781 35.8271 7.50781H16.8936ZM15.6436 41.4543H37.0771V45.9513C37.0771 46.6417 36.5175 47.2013 35.8271 47.2013H16.8936C16.2032 47.2013 15.6436 46.6417 15.6436 45.9513V41.4543ZM25.5324 44.4524C25.5324 44.1331 25.7913 43.8742 26.1106 43.8742C26.43 43.8742 26.6889 44.1331 26.6889 44.4524C26.6889 44.7718 26.43 45.0307 26.1106 45.0307C25.7913 45.0307 25.5324 44.7718 25.5324 44.4524ZM26.1106 42.3742C24.9628 42.3742 24.0324 43.3046 24.0324 44.4524C24.0324 45.6003 24.9628 46.5307 26.1106 46.5307C27.2584 46.5307 28.1889 45.6003 28.1889 44.4524C28.1889 43.3046 27.2584 42.3742 26.1106 42.3742ZM28.5463 20.575C25.8525 25.6358 27.7713 31.9222 32.8321 34.616C37.8929 37.3099 44.1793 35.3911 46.8731 30.3303C49.567 25.2695 47.6482 18.9831 42.5874 16.2893C37.5266 13.5954 31.2402 15.5142 28.5463 20.575ZM32.1273 35.9401C26.3352 32.857 24.1391 25.6623 27.2222 19.8702C30.3053 14.0781 37.5001 11.8821 43.2922 14.9652C49.0843 18.0483 51.2803 25.243 48.1972 31.0351C45.1141 36.8272 37.9194 39.0232 32.1273 35.9401ZM37.7104 30.3568C37.4342 30.3568 37.2104 30.133 37.2104 29.8568V25.9527H33.3054C33.0292 25.9527 32.8054 25.7289 32.8054 25.4527C32.8054 25.1766 33.0292 24.9527 33.3054 24.9527H37.2104V21.0483C37.2104 20.7722 37.4342 20.5483 37.7104 20.5483C37.9865 20.5483 38.2104 20.7722 38.2104 21.0483V24.9527H42.1138C42.39 24.9527 42.6138 25.1766 42.6138 25.4527C42.6138 25.7289 42.39 25.9527 42.1138 25.9527H38.2104V29.8568C38.2104 30.133 37.9865 30.3568 37.7104 30.3568Z" fill="#3C5564"/>
</svg>
