<svg width="55" height="56" viewBox="0 0 55 56" fill="none" xmlns="http://www.w3.org/2000/svg">
<path fill-rule="evenodd" clip-rule="evenodd" d="M14.2246 11.2358C14.2246 9.11218 15.9462 7.39062 18.0698 7.39062H38.4121C40.5357 7.39062 42.2572 9.11218 42.2572 11.2358V37.8565C42.2572 39.9801 40.5357 41.7017 38.4121 41.7017H38.257V45.5564C38.257 47.1102 36.9973 48.3699 35.4435 48.3699H21.0349C19.4811 48.3699 18.2214 47.1102 18.2214 45.5564V41.7017H18.0698C15.9462 41.7017 14.2246 39.9801 14.2246 37.8565V11.2358ZM30.4371 41.7042H19.7214V45.5564C19.7214 46.2818 20.3095 46.8699 21.0349 46.8699H30.4371V41.7042ZM31.9371 46.8699H35.4435C36.1689 46.8699 36.757 46.2818 36.757 45.5564V41.7042H31.9371V46.8699ZM18.0698 8.89062C16.7746 8.89062 15.7246 9.9406 15.7246 11.2358V37.8565C15.7246 39.1517 16.7746 40.2017 18.0698 40.2017H38.4121C39.7073 40.2017 40.7572 39.1517 40.7572 37.8565V11.2358C40.7572 9.9406 39.7073 8.89062 38.4121 8.89062H18.0698ZM19.0215 26.845C19.0215 26.4308 19.3573 26.095 19.7715 26.095H22.7805C23.1947 26.095 23.5305 26.4308 23.5305 26.845C23.5305 27.2593 23.1947 27.595 22.7805 27.595H19.7715C19.3573 27.595 19.0215 27.2593 19.0215 26.845ZM19.0215 31.6757C19.0215 31.2615 19.3573 30.9257 19.7715 30.9257H22.7805C23.1947 30.9257 23.5305 31.2615 23.5305 31.6757C23.5305 32.0899 23.1947 32.4257 22.7805 32.4257H19.7715C19.3573 32.4257 19.0215 32.0899 19.0215 31.6757ZM19.7715 35.5851C19.3573 35.5851 19.0215 35.9209 19.0215 36.3351C19.0215 36.7493 19.3573 37.0851 19.7715 37.0851H22.7805C23.1947 37.0851 23.5305 36.7493 23.5305 36.3351C23.5305 35.9209 23.1947 35.5851 22.7805 35.5851H19.7715ZM25.9865 26.845C25.9865 26.4308 26.3223 26.095 26.7365 26.095H29.7455C30.1597 26.095 30.4955 26.4308 30.4955 26.845C30.4955 27.2593 30.1597 27.595 29.7455 27.595H26.7365C26.3223 27.595 25.9865 27.2593 25.9865 26.845ZM26.7365 30.9257C26.3223 30.9257 25.9865 31.2615 25.9865 31.6757C25.9865 32.0899 26.3223 32.4257 26.7365 32.4257H29.7455C30.1597 32.4257 30.4955 32.0899 30.4955 31.6757C30.4955 31.2615 30.1597 30.9257 29.7455 30.9257H26.7365ZM25.9865 36.3351C25.9865 35.9209 26.3223 35.5851 26.7365 35.5851H29.7455C30.1597 35.5851 30.4955 35.9209 30.4955 36.3351C30.4955 36.7493 30.1597 37.0851 29.7455 37.0851H26.7365C26.3223 37.0851 25.9865 36.7493 25.9865 36.3351ZM33.7811 26.095C33.3669 26.095 33.0311 26.4308 33.0311 26.845C33.0311 27.2593 33.3669 27.595 33.7811 27.595H36.7901C37.2043 27.595 37.5401 27.2593 37.5401 26.845C37.5401 26.4308 37.2043 26.095 36.7901 26.095H33.7811ZM33.0311 31.6757C33.0311 31.2615 33.3669 30.9257 33.7811 30.9257H36.7901C37.2043 30.9257 37.5401 31.2615 37.5401 31.6757C37.5401 32.0899 37.2043 32.4257 36.7901 32.4257H33.7811C33.3669 32.4257 33.0311 32.0899 33.0311 31.6757ZM33.7811 35.5851C33.3669 35.5851 33.0311 35.9209 33.0311 36.3351C33.0311 36.7493 33.3669 37.0851 33.7811 37.0851H36.7901C37.2043 37.0851 37.5401 36.7493 37.5401 36.3351C37.5401 35.9209 37.2043 35.5851 36.7901 35.5851H33.7811ZM18.2214 13.0883C18.2214 12.6741 18.5572 12.3383 18.9714 12.3383H37.507C37.9212 12.3383 38.257 12.6741 38.257 13.0883V21.3878C38.257 21.802 37.9212 22.1378 37.507 22.1378H18.9714C18.5572 22.1378 18.2214 21.802 18.2214 21.3878V13.0883ZM19.7214 13.8383V20.6378H36.757V13.8383H19.7214Z" fill="#3C5564"/>
</svg>
