<svg width="55" height="56" viewBox="0 0 55 56" fill="none" xmlns="http://www.w3.org/2000/svg">
<path fill-rule="evenodd" clip-rule="evenodd" d="M15.4219 8.85938C15.0077 8.85938 14.6719 9.19516 14.6719 9.60938V46.2085C14.6719 46.6228 15.0077 46.9585 15.4219 46.9585H43.2425C43.6567 46.9585 43.9925 46.6228 43.9925 46.2085V36.7726C43.9925 36.3584 44.3283 36.0226 44.7425 36.0226C45.1567 36.0226 45.4925 36.3584 45.4925 36.7726V46.2085C45.4925 47.4512 44.4851 48.4585 43.2425 48.4585H15.4219C14.1792 48.4585 13.1719 47.4512 13.1719 46.2085V9.60938C13.1719 8.36674 14.1792 7.35938 15.4219 7.35938H34.8439C35.5317 7.35938 36.1824 7.67402 36.6089 8.21461C37.6337 9.5133 38.5889 10.7335 39.4952 11.8914L39.4966 11.8932L39.4976 11.8944L39.4982 11.8952L39.696 12.148C39.9514 12.4741 39.8939 12.9455 39.5678 13.2008C39.2416 13.4562 38.7702 13.3987 38.5149 13.0726L38.317 12.8197L38.3161 12.8186C37.4089 11.6597 36.4548 10.4408 35.4314 9.14378L36.0202 8.6792L35.4314 9.14378C35.2898 8.96432 35.0734 8.85938 34.8439 8.85938H15.4219ZM19.9892 28.884V24.2891C19.9892 23.5987 20.5489 23.0391 21.2392 23.0391H23.8467C24.2609 23.0391 24.5967 22.7033 24.5967 22.2891C24.5967 21.8748 24.2609 21.5391 23.8467 21.5391H21.2392C19.7205 21.5391 18.4892 22.7703 18.4892 24.2891V29.5651V36.2658V40.9664C18.4892 42.4852 19.7205 43.7164 21.2392 43.7164H25.7567H32.2742H36.7817C38.3004 43.7164 39.5317 42.4852 39.5317 40.9664V38.4841C39.5317 38.0699 39.1959 37.7341 38.7817 37.7341C38.3675 37.7341 38.0317 38.0699 38.0317 38.4841V40.9664C38.0317 41.6568 37.472 42.2164 36.7817 42.2164H33.4719V38.2539C33.4719 37.3332 33.0195 36.5182 32.3248 36.0191C37.7547 38.4196 44.1983 36.2523 47.0323 30.928C49.9999 25.353 47.8861 18.4279 42.3111 15.4603C36.7361 12.4928 29.811 14.6065 26.8434 20.1816C23.8867 25.7363 25.9743 32.6313 31.5039 35.6167C31.256 35.5433 30.9936 35.5039 30.7219 35.5039H19.9892V30.384H24.3593C24.7736 30.384 25.1093 30.0482 25.1093 29.634C25.1093 29.2198 24.7736 28.884 24.3593 28.884H19.9892ZM19.9892 37.0039V40.9664C19.9892 41.6568 20.5489 42.2164 21.2392 42.2164H25.0055V37.0039H19.9892ZM26.5055 42.2164H31.9719V38.2539C31.9719 37.5635 31.4123 37.0039 30.7219 37.0039H26.5055V42.2164ZM28.1675 20.8864C25.5892 25.7301 27.4257 31.7469 32.2695 34.3252C37.1132 36.9035 43.1299 35.067 45.7082 30.2232C48.2865 25.3795 46.45 19.3627 41.6063 16.7844C36.7626 14.2061 30.7458 16.0426 28.1675 20.8864ZM37.6511 18.7239C37.5507 18.4148 37.2628 18.2056 36.9379 18.2056C36.6129 18.2056 36.325 18.4148 36.2246 18.7239L34.8093 23.0795H30.2295C29.9046 23.0795 29.6166 23.2888 29.5162 23.5978C29.4158 23.9068 29.5258 24.2453 29.7887 24.4363L33.4938 27.1282L32.0786 31.4839C31.9782 31.7929 32.0882 32.1315 32.351 32.3224C32.6139 32.5134 32.9698 32.5134 33.2327 32.3224L36.9379 29.6305L40.643 32.3224C40.9059 32.5134 41.2618 32.5134 41.5247 32.3224C41.7875 32.1315 41.8975 31.7929 41.7971 31.4839L40.3819 27.1282L44.087 24.4363C44.3499 24.2453 44.4599 23.9068 44.3595 23.5978C44.2591 23.2888 43.9711 23.0795 43.6462 23.0795H39.0664L37.6511 18.7239ZM36.0675 24.0613L36.9379 21.3827L37.8082 24.0613C37.9086 24.3703 38.1966 24.5795 38.5215 24.5795H41.3379L39.0594 26.235C38.7965 26.426 38.6865 26.7645 38.7869 27.0735L39.6573 29.7522L37.3787 28.0967C37.1158 27.9057 36.7599 27.9057 36.497 28.0967L34.2185 29.7522L35.0888 27.0735C35.1892 26.7645 35.0792 26.426 34.8163 26.235L32.5378 24.5795H35.3542C35.6791 24.5795 35.9671 24.3703 36.0675 24.0613Z" fill="#3C5564"/>
</svg>
