<svg width="55" height="56" viewBox="0 0 55 56" fill="none" xmlns="http://www.w3.org/2000/svg">
<path fill-rule="evenodd" clip-rule="evenodd" d="M15.3164 7.50781C13.7976 7.50781 12.5664 8.73903 12.5664 10.2578V16.477V40.7043V45.9513C12.5664 47.4701 13.7976 48.7013 15.3164 48.7013H34.2499C35.7687 48.7013 36.9999 47.4701 36.9999 45.9513V40.7043V39.1307C36.9999 38.7165 36.6641 38.3807 36.2499 38.3807C35.8357 38.3807 35.4999 38.7165 35.4999 39.1307V39.9543H14.0664V16.477V10.2578C14.0664 9.56746 14.626 9.00781 15.3164 9.00781H34.2499C34.9403 9.00781 35.4999 9.56746 35.4999 10.2578V10.904V11.6057C35.4999 12.0199 35.8357 12.3557 36.2499 12.3557C36.6641 12.3557 36.9999 12.0199 36.9999 11.6057V10.904V10.2578C36.9999 8.73903 35.7687 7.50781 34.2499 7.50781H15.3164ZM14.0664 41.4543H35.4999V45.9513C35.4999 46.6417 34.9403 47.2013 34.2499 47.2013H15.3164C14.6261 47.2013 14.0664 46.6417 14.0664 45.9513V41.4543ZM23.9552 44.4524C23.9552 44.1331 24.2141 43.8742 24.5335 43.8742C24.8529 43.8742 25.1118 44.1331 25.1118 44.4524C25.1118 44.7718 24.8529 45.0307 24.5335 45.0307C24.2141 45.0307 23.9552 44.7718 23.9552 44.4524ZM24.5335 42.3742C23.3857 42.3742 22.4552 43.3046 22.4552 44.4524C22.4552 45.6002 23.3857 46.5307 24.5335 46.5307C25.6813 46.5307 26.6118 45.6002 26.6118 44.4524C26.6118 43.3046 25.6813 42.3742 24.5335 42.3742ZM22.6421 12.5453C22.5349 12.1452 22.1236 11.9077 21.7235 12.0149C20.9646 12.2183 20.2532 12.5691 19.6299 13.0474C19.0065 13.5257 18.4835 14.1221 18.0907 14.8025C17.6978 15.4829 17.4429 16.2341 17.3403 17.013C17.2378 17.792 17.2896 18.5835 17.493 19.3424C17.6002 19.7425 18.0115 19.98 18.4115 19.8727C18.8116 19.7655 19.0491 19.3543 18.9419 18.9542C18.7895 18.3856 18.7506 17.7925 18.8275 17.2088C18.9043 16.6251 19.0954 16.0623 19.3897 15.5525C19.6841 15.0427 20.076 14.5958 20.543 14.2374C21.01 13.8791 21.5431 13.6162 22.1117 13.4638C22.5118 13.3566 22.7493 12.9454 22.6421 12.5453ZM22.5797 18.6864C23.2944 18.6864 23.8738 18.107 23.8738 17.3923C23.8738 16.6775 23.2944 16.0981 22.5797 16.0981C21.8649 16.0981 21.2855 16.6775 21.2855 17.3923C21.2855 18.107 21.8649 18.6864 22.5797 18.6864ZM26.9691 20.5746C24.2752 25.6354 26.194 31.9218 31.2548 34.6157C36.3156 37.3095 42.602 35.3907 45.2958 30.3299C47.9897 25.2691 46.0709 18.9827 41.0101 16.2889C35.9493 13.595 29.6629 15.5138 26.9691 20.5746ZM30.55 35.9398C24.7579 32.8567 22.5619 25.6619 25.645 19.8698C28.7281 14.0777 35.9228 11.8817 41.7149 14.9648C47.507 18.0479 49.703 25.2427 46.6199 31.0347C43.5368 36.8268 36.3421 39.0229 30.55 35.9398ZM39.1012 25.1097C39.2965 25.305 39.6131 25.305 39.8083 25.1097L41.9094 23.0087C42.1047 22.8134 42.1047 22.4968 41.9094 22.3016L39.8083 20.2005C39.6131 20.0052 39.2965 20.0052 39.1012 20.2005C38.906 20.3958 38.906 20.7123 39.1012 20.9076L40.3487 22.1551H30.7709C30.4947 22.1551 30.2709 22.379 30.2709 22.6551C30.2709 22.9313 30.4947 23.1551 30.7709 23.1551H40.3487L39.1012 24.4026C38.906 24.5979 38.906 24.9145 39.1012 25.1097ZM33.2254 30.6294C33.0301 30.8247 32.7135 30.8247 32.5183 30.6294L30.4172 28.5284C30.2219 28.3331 30.2219 28.0165 30.4172 27.8213L32.5183 25.7202C32.7135 25.5249 33.0301 25.5249 33.2254 25.7202C33.4206 25.9155 33.4206 26.232 33.2254 26.4273L31.9779 27.6748H41.5557C41.8319 27.6748 42.0557 27.8987 42.0557 28.1748C42.0557 28.451 41.8319 28.6748 41.5557 28.6748H31.9779L33.2254 29.9223C33.4206 30.1176 33.4206 30.4342 33.2254 30.6294Z" fill="#3C5564"/>
</svg>
